<svg aria-hidden="true" style="position: absolute; width: 0; height: 0; overflow: hidden;" version="1.1" xmlns="http://www.w3.org/2000/svg" xmlns:xlink="http://www.w3.org/1999/xlink">
<defs>
<symbol id="icon-pencil" viewBox="0 0 32 32">
<path d="M27 0c2.761 0 5 2.239 5 5 0 1.126-0.372 2.164-1 3l-2 2-7-7 2-2c0.836-0.628 1.874-1 3-1zM2 23l-2 9 9-2 18.5-18.5-7-7-18.5 18.5zM22.362 11.362l-14 14-1.724-1.724 14-14 1.724 1.724z"></path>
</symbol>
<symbol id="icon-bin" viewBox="0 0 32 32">
<path d="M4 10v20c0 1.1 0.9 2 2 2h18c1.1 0 2-0.9 2-2v-20h-22zM10 28h-2v-14h2v14zM14 28h-2v-14h2v14zM18 28h-2v-14h2v14zM22 28h-2v-14h2v14z"></path>
<path d="M26.5 4h-6.5v-2.5c0-0.825-0.675-1.5-1.5-1.5h-7c-0.825 0-1.5 0.675-1.5 1.5v2.5h-6.5c-0.825 0-1.5 0.675-1.5 1.5v2.5h26v-2.5c0-0.825-0.675-1.5-1.5-1.5zM18 4h-6v-1.975h6v1.975z"></path>
</symbol>
<symbol id="icon-checkmark" viewBox="0 0 32 32">
<path d="M27 4l-15 15-7-7-5 5 12 12 20-20z"></path>
</symbol>
<symbol id="icon-camera" viewBox="0 0 32 32">
<path d="M16 10.001c-4.419 0-8 3.581-8 8s3.581 8 8 8c4.418 0 8-3.582 8-8s-3.582-8-8-8zM20.555 21.906c-2.156 2.516-5.943 2.807-8.459 0.65-2.517-2.156-2.807-5.944-0.65-8.459 2.155-2.517 5.943-2.807 8.459-0.65 2.515 2.155 2.806 5.944 0.65 8.459zM16 14.001c0.276 0 0.5 0.224 0.5 0.5s-0.224 0.5-0.5 0.5c-1.657 0-2.999 1.343-3 2.999v0.002c0 0.275-0.224 0.5-0.5 0.5s-0.5-0.225-0.5-0.5v-0.002c0.001-2.208 1.791-3.999 4-3.999zM29.492 9.042l-4.334-0.723-1.373-3.434c-0.459-1.145-1.553-1.885-2.785-1.885h-10c-1.232 0-2.326 0.74-2.786 1.886l-1.372 3.433-4.333 0.723c-1.454 0.241-2.509 1.485-2.509 2.958v15c0 1.654 1.346 3 3 3h26c1.654 0 3-1.346 3-3v-15c0-1.473-1.055-2.717-2.508-2.958zM30 27c0 0.553-0.447 1-1 1h-26c-0.553 0-1-0.447-1-1v-15c0-0.489 0.354-0.906 0.836-0.986l5.444-0.907 1.791-4.478c0.153-0.379 0.52-0.629 0.929-0.629h10c0.408 0 0.775 0.249 0.928 0.629l1.791 4.478 5.445 0.907c0.482 0.080 0.836 0.497 0.836 0.986v15z"></path>
</symbol>
</defs>
</svg>
